<?xml version="1.0" encoding="iso-8859-1"?>
<!-- Generator: Adobe Illustrator 18.1.1, SVG Export Plug-In . SVG Version: 6.00 Build 0)  -->
<svg xmlns="http://www.w3.org/2000/svg" xmlns:xlink="http://www.w3.org/1999/xlink" version="1.1" id="Capa_1" x="0px" y="0px" viewBox="0 0 169.382 169.382" style="enable-background:new 0 0 169.382 169.382;" xml:space="preserve" width="512px" height="512px">
<g>
	<path d="M43.889,52.938c-0.101-1.217-0.298-2.363-0.298-3.658c0-9.404,3.449-17.883,10.347-25.431   s16.558-11.385,28.999-11.51V0h8.825v12.16c12.304,0.871,21.767,4.493,28.343,10.878c6.593,6.391,10.036,14.834,10.358,25.323   h-16.248c-0.43-4.702-1.712-8.753-3.813-12.16c-3.89-6.247-10.102-9.529-18.646-9.839v18.026l-8.825,17.644V26.183   c-8.169,0.31-13.992,2.787-17.447,7.423c-3.473,4.642-5.203,9.499-5.203,14.571c0,6.122,2.053,10.919,6.14,14.386   c3.353,2.858,7.751,4.964,13.05,6.385l-7.512,15.025c-7.984-2.494-14.279-5.812-18.772-9.994c-0.847-0.782-1.48-1.712-2.214-2.578   L43.889,52.938z M82.948,110.089v27.173c-4.696-0.382-8.688-1.432-12.059-3.049l-6.623,13.258   c5.334,2.112,11.546,3.437,18.694,3.896v18.014h8.825v-18.014c11.188-1.241,19.762-3.771,25.699-7.602   c10.722-6.928,16.045-18.623,16.045-35.091c0-4.523-0.674-8.586-2.005-12.238l-14.708,17.274c-0.072,4.684-1.11,8.831-3.145,12.423   c-4.01,7.244-11.307,11.104-21.886,11.606V92.457L82.948,110.089z M55.322,142.549l-13.706-35.64h-0.621   c0,10.645,1.772,19.088,5.281,25.347C48.555,136.349,51.604,139.756,55.322,142.549z M39.713,85.183l21.218,56.942l34.363-68.75   l13.288,41.714l49.459-58.076l7.202,7.202V42.359h-21.875l7.041,7.035l-37.466,43.994L97.526,44.913l-35.312,70.624l-19.792-51.47   L4.138,111.294h13.02L39.713,85.183z" fill="#D80027"/>
</g>
<g>
</g>
<g>
</g>
<g>
</g>
<g>
</g>
<g>
</g>
<g>
</g>
<g>
</g>
<g>
</g>
<g>
</g>
<g>
</g>
<g>
</g>
<g>
</g>
<g>
</g>
<g>
</g>
<g>
</g>
</svg>
